<svg width="35" height="30" viewBox="0 0 35 30" fill="none" xmlns="http://www.w3.org/2000/svg">
<path opacity="0.45" d="M15.7819 25.6363C16.0036 26.0469 16.3639 26.3207 16.9182 26.2933C18.1099 26.2112 18.8305 24.8424 19.274 23.9116C20.6043 21.2014 21.6574 18.3544 22.4334 15.4525C22.4889 15.2609 22.5443 15.0419 22.7106 14.905C22.8769 14.7681 23.0986 14.7681 23.2926 14.7408C25.0941 14.6313 28.1704 14.686 29.1404 12.7697C29.5561 11.9211 29.3067 10.826 28.6138 10.169C27.5053 9.10136 25.3989 9.48462 23.9855 9.56675C22.4612 9.64887 20.9369 9.731 19.4125 9.81313C17.7219 9.89526 16.0591 9.95001 14.3685 10.1416C12.9827 10.3059 11.2921 10.3606 10.2667 11.4283C9.87866 11.8389 9.60151 12.4138 9.65694 12.9887C8.32663 9.92263 12.7056 5.54252 17.9991 2.1753C17.9991 2.1753 20.9646 0.259003 24.1795 0.0399969C26.8124 -0.151633 29.9996 0.259003 32.4939 3.1882C33.6856 4.58437 34.5448 6.28166 34.8219 7.84208C36.0691 15.3704 30.5539 22.6523 24.8169 27.9632C24.0132 28.7024 22.7106 29.7153 21.1586 29.9617C19.9668 30.1533 18.7751 29.6058 17.9159 28.7845C17.8882 28.7845 16.6133 27.4978 15.7819 25.6363Z" fill="url(#paint0_linear)"/>
<g opacity="0.45">
<path opacity="0.45" d="M26.951 5.46046C28.6693 7.02088 30.2213 10.1143 29.1405 12.7698C28.3367 14.7408 25.1218 14.604 23.2927 14.7408C23.0987 14.7682 22.8769 14.7682 22.7106 14.9051C22.5444 15.042 22.4889 15.261 22.4335 15.4526C21.6575 18.3544 20.8815 20.5719 19.5789 23.2821C19.1354 24.2128 18.4703 25.4721 17.7497 26.0196C15.3108 28.1002 12.567 28.6751 9.40756 28.1002C6.24808 27.5253 3.39345 25.609 1.53657 23.0083C0.954556 22.187 0.45569 21.2836 0.233972 20.2981C-0.348038 17.7795 0.150828 15.3157 1.786 13.2899C2.70059 12.1675 4.52976 11.0177 5.47206 9.9227C6.35893 8.88243 7.02409 7.70527 7.8001 6.61024C9.21355 4.66656 11.4307 3.3799 13.7865 2.80501C13.7865 2.80501 21.2695 0.286446 26.951 5.46046Z" fill="url(#paint1_linear)"/>
</g>
<path opacity="0.6" d="M9.65684 13.0161C9.5737 12.4412 9.85084 11.8663 10.2666 11.4557C11.2643 10.4154 12.9826 10.3606 14.3683 10.169C16.0312 9.95 17.7218 9.92263 19.4124 9.8405C20.9367 9.75837 22.4611 9.67625 23.9854 9.59412C25.3988 9.51199 27.5051 9.12873 28.6137 10.1964C29.3066 10.8534 29.556 11.9484 29.1403 12.7971C28.198 14.7134 25.1217 14.6313 23.2925 14.7681C23.0985 14.7955 22.8768 14.7955 22.7105 14.9324C22.5442 15.0693 22.4888 15.2883 22.4333 15.4799C21.6573 18.3544 20.6042 21.2014 19.2739 23.8843C18.8304 24.815 18.1098 26.1838 16.9181 26.2659C15.7541 26.3481 15.4215 25.0067 15.5601 24.1306C15.9758 21.2562 17.3615 18.5186 17.3893 15.6168C17.3893 15.4252 17.3615 15.2061 17.223 15.124C17.1398 15.0693 17.0013 15.0693 16.8904 15.0693C14.7009 15.0693 12.6223 15.9453 10.6546 14.467C10.1834 14.1111 9.73998 13.6184 9.65684 13.0161Z" fill="white"/>
<path opacity="0.45" d="M15.5604 24.1306C15.9761 21.2562 17.3619 18.5186 17.3896 15.6168C17.3896 15.4252 17.3619 15.2062 17.2233 15.124C17.1402 15.0693 17.0016 15.0693 16.8907 15.0693C14.7013 15.0693 12.6226 15.9453 10.6549 14.467C10.1837 14.1111 9.74031 13.6184 9.65717 13.0161C9.57402 12.4412 9.85117 11.8663 10.2669 11.4557C11.2646 10.4154 12.9829 10.3607 14.3687 10.169C16.0316 9.95002 17.7222 9.92264 19.4128 9.84051C20.9371 9.75839 22.4614 9.67626 23.9857 9.59413C25.3992 9.51201 27.5055 9.12875 28.6141 10.1964C29.0298 10.607 29.3069 11.1819 29.3347 11.7842H29.3901C29.3901 11.7842 29.6672 10.0595 27.9489 8.33485C27.9489 8.33485 26.5355 6.77443 23.0434 6.63756C19.5513 6.52805 17.445 5.24139 16.7521 4.88551C16.0593 4.52962 10.0452 0.395892 5.83253 6.3638C1.61988 12.3317 7.13512 18.4639 7.13512 18.4639C7.13512 18.4639 9.51859 22.2417 16.087 26.2386C16.087 26.2112 15.4496 25.0067 15.5604 24.1306Z" fill="url(#paint2_linear)"/>
<path opacity="0.45" d="M19.7173 22.9808C20.8259 20.5443 21.7405 18.0258 22.4333 15.4525C22.4888 15.2608 22.5442 15.0418 22.7105 14.9049C22.8768 14.7681 23.0985 14.7681 23.2925 14.7407C25.0939 14.6312 28.1703 14.6859 29.1403 12.7696C29.556 11.921 29.3066 10.826 28.6137 10.1689C27.5051 9.10128 25.3988 9.48454 23.9854 9.56667C23.9854 9.56667 27.2834 5.51506 30.6923 7.37661C34.1012 9.23816 31.6623 13.2898 31.6623 13.2898C31.6623 13.2898 29.6946 16.2463 25.8422 17.6151C22.7659 18.7375 21.685 19.6683 19.7173 22.9808Z" fill="url(#paint3_linear)"/>
<defs>
<linearGradient id="paint0_linear" x1="9.42696" y1="15.0075" x2="35.0024" y2="15.0075" gradientUnits="userSpaceOnUse">
<stop offset="0.00114733" stop-color="#FF8300"/>
<stop offset="1" stop-color="#F9EC31"/>
</linearGradient>
<linearGradient id="paint1_linear" x1="23.1316" y1="6.07513" x2="3.56236" y2="25.7472" gradientUnits="userSpaceOnUse">
<stop offset="2.44409e-07" stop-color="#FF85AF"/>
<stop offset="1" stop-color="#EF39A2"/>
</linearGradient>
<linearGradient id="paint2_linear" x1="4.24716" y1="14.6883" x2="29.4155" y2="14.6883" gradientUnits="userSpaceOnUse">
<stop offset="3.6901e-07" stop-color="#EC0059"/>
<stop offset="0.9943" stop-color="#FFA600"/>
</linearGradient>
<linearGradient id="paint3_linear" x1="19.5591" y1="17.8584" x2="31.0345" y2="9.04036" gradientUnits="userSpaceOnUse">
<stop stop-color="#9056FF"/>
<stop offset="0.9963" stop-color="#FF4CD8"/>
</linearGradient>
</defs>
</svg>
