<svg width="48" height="48" viewBox="0 0 48 48" fill="none" xmlns="http://www.w3.org/2000/svg">
<path d="M10.5003 19.4745C12.4591 21.4734 14.3674 23.948 14.8111 26.5606C15.6095 22.0824 21.6343 15.9868 26.1314 15.2146C21.6637 14.4906 15.521 8.34502 14.8114 3.85939C14.0069 8.28523 7.94006 14.4356 3.49075 15.2081C6.08384 15.6552 8.50945 17.5294 10.5003 19.4745Z" fill="#D71920"/>
<path d="M46.1646 6.65528C41.5413 1.13219 32.9466 2.81897 26.308 5.51861C36.8436 2.18944 46.5048 6.57003 41.4634 19.0922C38.966 25.2486 32.6842 31.5456 26.6644 35.1053C23.4857 37.1602 20.0853 38.891 16.3801 39.4092C10.6796 40.1915 7.2633 37.2483 8.71325 31.3675C9.0789 29.9314 9.74452 28.4817 10.4054 27.0712C9.31744 24.4892 6.97675 21.8478 4.46476 21.1139C3.11066 23.1511 2.12544 24.9954 1.12299 27.8471C-1.14562 33.9756 -0.404605 42.9746 7.34731 44.9217C21.5335 47.7483 40.7241 32.6692 46.1863 20.1029C48.5241 14.8069 48.6912 9.91176 46.1646 6.65528Z" fill="#D71920"/>
</svg>
