<svg width="35" height="30" viewBox="0 0 35 30" fill="none" xmlns="http://www.w3.org/2000/svg">
<path opacity="0.65" d="M16.2084 26.0908C16.3898 26.2085 16.6248 26.2836 16.9278 26.267C18.1203 26.2014 18.8381 24.8059 19.2881 23.8852C20.6086 21.1842 21.6613 18.3551 22.4262 15.4517C22.4798 15.2486 22.5413 15.0305 22.706 14.8986C22.8666 14.7705 23.0872 14.7539 23.2935 14.7397C25.1071 14.6164 28.1772 14.6978 29.1276 12.7783C29.5489 11.9272 29.2939 10.8288 28.6057 10.1689C27.4906 9.10053 25.3909 9.49328 23.9753 9.57389C22.4518 9.66082 20.9283 9.74695 19.4048 9.83388C17.7255 9.9295 16.0397 9.95795 14.37 10.1705C12.9896 10.346 11.2863 10.3973 10.2767 11.4484C9.87708 11.864 9.60452 12.4346 9.67565 13.0036C9.67645 13.0075 9.67645 13.0107 9.67725 13.0146C9.69324 13.1363 9.72841 13.2533 9.77157 13.3663L9.70283 13.2264C8.38477 10.1579 12.7266 5.5547 18.0252 2.17483C18.0252 2.17483 21.0003 0.269546 24.2071 0.0395843C26.844 -0.149284 30.034 0.24979 32.5047 3.18239C33.6893 4.58823 34.5597 6.28647 34.8203 7.85116C36.0752 15.3774 30.5472 22.669 24.8114 27.9787C24.0168 28.7136 22.7036 29.7251 21.1497 29.9646C19.9699 30.1471 18.7662 29.6042 17.8989 28.7926C17.8989 28.7926 15.8047 26.8605 15.6177 25.1393C15.6185 25.1417 15.7192 25.7723 16.2084 26.0908Z" fill="url(#paint0_linear)"/>
<path opacity="0.65" d="M26.9494 5.46308C21.2791 0.270384 13.7968 2.78257 13.7968 2.78257C11.4405 3.35629 9.21998 4.65071 7.80041 6.59709C7.0027 7.69079 6.33687 8.8564 5.46003 9.90426C4.53204 11.0138 2.69523 12.1486 1.78721 13.2747C0.156624 15.2969 -0.343743 17.7696 0.226963 20.2928C0.44997 21.2783 0.950337 22.1831 1.54023 23.0081C3.39462 25.6009 6.24735 27.5157 9.40542 28.0925C12.5635 28.6694 15.3107 28.091 17.7446 26.0189C17.8453 25.9415 17.9444 25.8475 18.0427 25.7447C18.6015 25.2406 18.9987 24.4716 19.2857 23.8845C19.3536 23.7446 19.4184 23.6032 19.4855 23.4625C19.4855 23.4625 19.4863 23.4617 19.4863 23.4609C19.5167 23.3993 19.5558 23.3416 19.5758 23.2792C19.5782 23.2713 19.5806 23.2634 19.5838 23.2555C20.7644 20.7448 21.718 18.1299 22.4245 15.451C22.5061 15.2574 22.5396 15.0298 22.7043 14.8986C22.7842 14.8346 22.8802 14.7983 22.9809 14.7761C23.0312 14.7651 23.0832 14.7579 23.1351 14.7524C23.1871 14.7469 23.2398 14.7429 23.291 14.7398C25.1046 14.6165 28.1748 14.6979 29.1251 12.7784C29.1963 12.6346 29.2466 12.4828 29.281 12.3279C30.0444 9.76913 28.5664 6.944 26.9494 5.46308Z" fill="url(#paint1_linear)"/>
<path opacity="0.65" d="M15.5751 24.1245C16.0123 21.2511 17.3623 18.5232 17.4063 15.6175C17.4087 15.4333 17.3903 15.2176 17.2352 15.1157C17.1417 15.054 17.0218 15.0517 16.9091 15.0517C14.7126 15.0485 12.652 15.9391 10.6689 14.4534C10.1885 14.0931 9.75692 13.6055 9.67779 13.0144C9.67699 13.0105 9.67699 13.0073 9.67619 13.0033C9.60425 12.4352 9.87762 11.8638 10.2773 11.4481C11.2868 10.3971 12.9901 10.3457 14.3705 10.1703C16.0403 9.95853 17.7268 9.92929 19.4054 9.83367C20.9289 9.74674 22.4523 9.66061 23.9758 9.57368C25.3914 9.49308 27.4912 9.10032 28.6062 10.1687C29.0346 10.5797 29.296 11.1605 29.3296 11.7461L29.3975 11.7421C29.3975 11.7421 29.6877 10.0115 27.9556 8.28005C27.9556 8.28005 26.5472 6.71773 23.0454 6.59525C19.5436 6.47276 17.4367 5.18624 16.7549 4.8488C16.0731 4.51216 10.0615 0.376018 5.8475 6.35027C1.63355 12.3245 7.14878 18.4513 7.14878 18.4513C7.14878 18.4513 9.69298 22.1402 16.2513 26.1388C16.2513 26.1404 15.3505 25.5975 15.5751 24.1245Z" fill="url(#paint2_linear)"/>
<path opacity="0.5" d="M30.6678 7.39374C27.2747 5.50979 23.9752 9.5756 23.9752 9.5756C25.3908 9.495 27.4906 9.10225 28.6056 10.1707C29.2938 10.8305 29.5496 11.929 29.1275 12.78C28.1772 14.6996 25.107 14.6182 23.2934 14.7414C23.0872 14.7557 22.8666 14.7723 22.7059 14.9003C22.5404 15.0322 22.4797 15.2504 22.4261 15.4534C22.3358 15.7972 22.2399 16.1402 22.1416 16.4823C22.1088 16.5946 22.0744 16.706 22.0409 16.8182C21.9729 17.0474 21.9042 17.2773 21.8323 17.5057C21.7907 17.6377 21.7475 17.7697 21.7044 17.9016C21.6372 18.1095 21.5685 18.3173 21.4981 18.5243C21.451 18.6626 21.403 18.8001 21.3543 18.9376C21.2839 19.1384 21.2128 19.3383 21.1393 19.5374C21.0881 19.6765 21.0369 19.8148 20.9842 19.9531C20.9091 20.1515 20.8323 20.3498 20.7548 20.5474C20.7012 20.6833 20.6477 20.8192 20.5933 20.9543C20.511 21.1566 20.4271 21.3589 20.3423 21.5605C20.2888 21.6885 20.2352 21.8165 20.1801 21.9437C20.085 22.1634 19.9867 22.3823 19.8883 22.6012C19.8404 22.7079 19.7932 22.8154 19.7445 22.9213C19.7349 22.9418 19.7261 22.9624 19.7173 22.9821L19.7213 22.9837C21.6964 19.6639 22.7714 18.729 25.8336 17.6424C29.6759 16.2793 31.6438 13.3229 31.6438 13.3229C31.6438 13.3229 34.0609 9.27768 30.6678 7.39374Z" fill="url(#paint3_linear)"/>
<path opacity="0.7" d="M9.67556 13.0043C9.60363 12.4361 9.87699 11.8647 10.2766 11.4491C11.2862 10.398 12.9895 10.3467 14.3699 10.1712C16.0397 9.95946 17.7262 9.93022 19.4047 9.8346C20.9282 9.74767 22.4517 9.66153 23.9752 9.57461C25.3908 9.494 27.4905 9.10125 28.6056 10.1697C29.2938 10.8295 29.5496 11.928 29.1275 12.7791C28.1771 14.6986 25.107 14.6172 23.2934 14.7404C23.0872 14.7547 22.8665 14.7713 22.7059 14.8993C22.5404 15.0312 22.4797 15.2494 22.4261 15.4524C21.6604 18.3558 20.6077 21.1841 19.288 23.8859C18.838 24.8066 18.1187 26.1753 16.9277 26.2677C15.7663 26.357 15.445 25.0176 15.5753 24.1262C15.9949 21.2497 17.3625 18.5249 17.4065 15.6192C17.4089 15.4351 17.3905 15.2193 17.2354 15.1174C17.1419 15.0557 17.022 15.0534 16.9093 15.0534C14.7128 15.0502 12.6522 15.9408 10.6691 14.4552C10.1887 14.0948 9.75709 13.6072 9.67796 13.0161C9.67636 13.0114 9.67556 13.0082 9.67556 13.0043Z" fill="black"/>
<defs>
<linearGradient id="paint0_linear" x1="9.46436" y1="15.0015" x2="34.9999" y2="15.0015" gradientUnits="userSpaceOnUse">
<stop offset="0.00114746" stop-color="#FF7400"/>
<stop offset="1" stop-color="#FFFF00"/>
</linearGradient>
<linearGradient id="paint1_linear" x1="22.7796" y1="5.03666" x2="4.04641" y2="26.6164" gradientUnits="userSpaceOnUse">
<stop offset="0.0619" stop-color="#FF85AF"/>
<stop offset="0.9985" stop-color="#EF27A2"/>
</linearGradient>
<linearGradient id="paint2_linear" x1="3.56409" y1="10.3225" x2="26.6962" y2="18.8307" gradientUnits="userSpaceOnUse">
<stop offset="0.0387" stop-color="#FF0059"/>
<stop offset="0.9973" stop-color="#FFF100"/>
</linearGradient>
<linearGradient id="paint3_linear" x1="34.3042" y1="4.45822" x2="17.5297" y2="23.0633" gradientUnits="userSpaceOnUse">
<stop offset="0.000376879" stop-color="#8600FF"/>
<stop offset="1" stop-color="#FF23D8"/>
</linearGradient>
</defs>
</svg>
