<svg width="44" height="46" viewBox="0 0 44 46" fill="none" xmlns="http://www.w3.org/2000/svg">
<circle cx="16" cy="16" r="16" fill="#5E5E5E"/>
<path d="M12 16H20V17H12V16ZM12 15H20V14H12V15ZM12 19H20V18H12V19ZM23 10V23C23 23.2812 22.901 23.5156 22.7031 23.7031C22.5156 23.901 22.2812 24 22 24H10C9.71875 24 9.47917 23.901 9.28125 23.7031C9.09375 23.5156 9 23.2812 9 23V10C9 9.71875 9.09375 9.48438 9.28125 9.29688C9.47917 9.09896 9.71875 9 10 9H12V8H20V9H22C22.2812 9 22.5156 9.09896 22.7031 9.29688C22.901 9.48438 23 9.71875 23 10ZM13 10H19V9H13V10ZM22 10H20V11H12V10H10V23H22V10Z" fill="white" fill-opacity="0.92"/>
<g filter="url(#filter0_dd_1856_8838)">
<circle cx="28" cy="28" r="6" fill="#303030"/>
<path d="M28 20C26.8958 20 25.8594 20.2083 24.8906 20.625C23.9115 21.0417 23.0573 21.6146 22.3281 22.3438C21.6094 23.0625 21.0417 23.9115 20.625 24.8906C20.2083 25.8594 20 26.8958 20 28C20 29.1042 20.2083 30.1406 20.625 31.1094C21.0417 32.0885 21.6094 32.9427 22.3281 33.6719C23.0573 34.3906 23.9115 34.9583 24.8906 35.375C25.8594 35.7917 26.8958 36 28 36C29.1042 36 30.1406 35.7917 31.1094 35.375C32.0885 34.9583 32.9375 34.3906 33.6562 33.6719C34.3854 32.9427 34.9583 32.0885 35.375 31.1094C35.7917 30.1406 36 29.1042 36 28C36 26.8958 35.7917 25.8594 35.375 24.8906C34.9583 23.9115 34.3854 23.0625 33.6562 22.3438C32.9375 21.6146 32.0885 21.0417 31.1094 20.625C30.1406 20.2083 29.1042 20 28 20ZM27 32L23 28L24 27L27 30L32 24L33 25L27 32Z" fill="#04C45A"/>
</g>
<defs>
<filter id="filter0_dd_1856_8838" x="12" y="14" width="32" height="32" filterUnits="userSpaceOnUse" color-interpolation-filters="sRGB">
<feFlood flood-opacity="0" result="BackgroundImageFix"/>
<feColorMatrix in="SourceAlpha" type="matrix" values="0 0 0 0 0 0 0 0 0 0 0 0 0 0 0 0 0 0 127 0" result="hardAlpha"/>
<feOffset dy="1"/>
<feGaussianBlur stdDeviation="1"/>
<feColorMatrix type="matrix" values="0 0 0 0 0 0 0 0 0 0 0 0 0 0 0 0 0 0 0.16 0"/>
<feBlend mode="normal" in2="BackgroundImageFix" result="effect1_dropShadow_1856_8838"/>
<feColorMatrix in="SourceAlpha" type="matrix" values="0 0 0 0 0 0 0 0 0 0 0 0 0 0 0 0 0 0 127 0" result="hardAlpha"/>
<feOffset dy="2"/>
<feGaussianBlur stdDeviation="4"/>
<feColorMatrix type="matrix" values="0 0 0 0 0 0 0 0 0 0 0 0 0 0 0 0 0 0 0.48 0"/>
<feBlend mode="normal" in2="effect1_dropShadow_1856_8838" result="effect2_dropShadow_1856_8838"/>
<feBlend mode="normal" in="SourceGraphic" in2="effect2_dropShadow_1856_8838" result="shape"/>
</filter>
</defs>
</svg>
