<svg width="32" height="32" viewBox="0 0 32 32" fill="none" xmlns="http://www.w3.org/2000/svg">
<circle cx="16" cy="16" r="16" fill="url(#paint0_linear_1856_8833)"/>
<path d="M16.7969 10.5H15.2031V8H16.7031V10.5H16.7969ZM8 17H10.2031V15.5H8V17ZM21.7969 15.5V17H24V15.5H21.7969ZM10.9062 9.79688L9.79688 10.9062L11.2031 12.2969L12.2969 11.2031L10.9062 9.79688ZM21.0938 9.79688L19.7031 11.2031L20.7969 12.2969L22.2031 10.9062L21.0938 9.79688ZM20.2031 14.5C20.5052 15.0729 20.6823 15.6719 20.7344 16.2969C20.7865 16.9219 20.7292 17.526 20.5625 18.1094C20.3958 18.6927 20.1198 19.2292 19.7344 19.7188C19.349 20.2083 18.8698 20.6042 18.2969 20.9062V24H13.7969V20.9062C13.401 20.6979 13.0365 20.4271 12.7031 20.0938C12.3698 19.7604 12.1042 19.3958 11.9062 19C11.5729 18.4271 11.375 17.8281 11.3125 17.2031C11.2396 16.5781 11.2812 15.974 11.4375 15.3906C11.6042 14.8073 11.8802 14.2708 12.2656 13.7812C12.651 13.2917 13.1302 12.8958 13.7031 12.5938C14.276 12.2708 14.875 12.0833 15.5 12.0312C16.125 11.9688 16.7292 12.026 17.3125 12.2031C17.9062 12.3802 18.4531 12.6615 18.9531 13.0469C19.4635 13.4427 19.8802 13.9271 20.2031 14.5ZM17.5 13.7969C17.125 13.599 16.7292 13.4844 16.3125 13.4531C15.8854 13.4219 15.4688 13.4688 15.0625 13.5938C14.6667 13.7188 14.2969 13.9167 13.9531 14.1875C13.6094 14.4583 13.3229 14.7969 13.0938 15.2031C12.875 15.599 12.7448 16.0156 12.7031 16.4531C12.6615 16.8802 12.6979 17.2969 12.8125 17.7031C12.9271 18.099 13.1198 18.4635 13.3906 18.7969C13.6615 19.1302 14 19.3958 14.4062 19.5938L15.2031 20V22.5H16.7031V20L17.5 19.5938C17.8021 19.4479 18.0573 19.2604 18.2656 19.0312C18.474 18.7917 18.651 18.5469 18.7969 18.2969C19.026 17.901 19.1615 17.4844 19.2031 17.0469C19.2448 16.6094 19.2031 16.1875 19.0781 15.7812C18.9635 15.375 18.7708 15 18.5 14.6562C18.2292 14.3125 17.8958 14.026 17.5 13.7969Z" fill="white" fill-opacity="0.92"/>
<defs>
<linearGradient id="paint0_linear_1856_8833" x1="-2.27242e-07" y1="31.9998" x2="32.0511" y2="31.9485" gradientUnits="userSpaceOnUse">
<stop stop-color="#578AEF"/>
<stop offset="1" stop-color="#04CAA1"/>
</linearGradient>
</defs>
</svg>
