<svg width="44" height="46" viewBox="0 0 44 46" fill="none" xmlns="http://www.w3.org/2000/svg">
<circle cx="16" cy="16" r="16" fill="#5E5E5E"/>
<path d="M12 16H20V17H12V16ZM12 15H20V14H12V15ZM12 19H20V18H12V19ZM23 10V23C23 23.2812 22.901 23.5156 22.7031 23.7031C22.5156 23.901 22.2812 24 22 24H10C9.71875 24 9.47917 23.901 9.28125 23.7031C9.09375 23.5156 9 23.2812 9 23V10C9 9.71875 9.09375 9.48438 9.28125 9.29688C9.47917 9.09896 9.71875 9 10 9H12V8H20V9H22C22.2812 9 22.5156 9.09896 22.7031 9.29688C22.901 9.48438 23 9.71875 23 10ZM13 10H19V9H13V10ZM22 10H20V11H12V10H10V23H22V10Z" fill="white" fill-opacity="0.92"/>
<g filter="url(#filter0_dd_1856_8834)">
<circle cx="28" cy="28" r="8" fill="#8A8A8A"/>
<path d="M32.875 27.75H34C34 28.5781 33.8438 29.3555 33.5312 30.082C33.2109 30.8086 32.7773 31.4453 32.2305 31.9922C31.6914 32.5312 31.0586 32.9609 30.332 33.2812C29.6055 33.5938 28.8281 33.75 28 33.75C27.1719 33.75 26.3945 33.5938 25.668 33.2812C24.9414 32.9609 24.3047 32.5312 23.7578 31.9922C23.2188 31.4453 22.7891 30.8086 22.4688 30.082C22.1562 29.3555 22 28.5781 22 27.75C22 26.9219 22.1562 26.1445 22.4688 25.418C22.7891 24.6914 23.2188 24.0586 23.7578 23.5195C24.3047 22.9727 24.9414 22.5391 25.668 22.2188C26.3945 21.9062 27.1719 21.75 28 21.75V22.875C27.3281 22.875 26.6953 23.0039 26.1016 23.2617C25.5078 23.5117 24.9883 23.8594 24.543 24.3047C24.1055 24.7422 23.7617 25.2578 23.5117 25.8516C23.2539 26.4453 23.125 27.0781 23.125 27.75C23.125 28.4219 23.2539 29.0547 23.5117 29.6484C23.7617 30.2422 24.1055 30.7617 24.543 31.207C24.9883 31.6445 25.5078 31.9883 26.1016 32.2383C26.6953 32.4961 27.3281 32.625 28 32.625C28.6719 32.625 29.3047 32.4961 29.8984 32.2383C30.4922 31.9883 31.0078 31.6445 31.4453 31.207C31.8906 30.7617 32.2383 30.2422 32.4883 29.6484C32.7461 29.0547 32.875 28.4219 32.875 27.75ZM29.5 21.75C29.2734 21.75 29.0898 21.8203 28.9492 21.9609C28.8164 22.0938 28.75 22.2734 28.75 22.5C28.75 22.7266 28.8164 22.9102 28.9492 23.0508C29.0898 23.1836 29.2734 23.25 29.5 23.25C29.7266 23.25 29.9062 23.1836 30.0391 23.0508C30.1797 22.9102 30.25 22.7266 30.25 22.5C30.25 22.2734 30.1797 22.0938 30.0391 21.9609C29.9062 21.8203 29.7266 21.75 29.5 21.75ZM31.75 23.25C31.5234 23.25 31.3398 23.3203 31.1992 23.4609C31.0664 23.5938 31 23.7734 31 24C31 24.2266 31.0664 24.4102 31.1992 24.5508C31.3398 24.6836 31.5234 24.75 31.75 24.75C31.9766 24.75 32.1562 24.6836 32.2891 24.5508C32.4297 24.4102 32.5 24.2266 32.5 24C32.5 23.7734 32.4297 23.5938 32.2891 23.4609C32.1562 23.3203 31.9766 23.25 31.75 23.25ZM33.25 25.5C33.0234 25.5 32.8398 25.5703 32.6992 25.7109C32.5664 25.8438 32.5 26.0234 32.5 26.25C32.5 26.4766 32.5664 26.6602 32.6992 26.8008C32.8398 26.9336 33.0234 27 33.25 27C33.4766 27 33.6562 26.9336 33.7891 26.8008C33.9297 26.6602 34 26.4766 34 26.25C34 26.0234 33.9297 25.8438 33.7891 25.7109C33.6562 25.5703 33.4766 25.5 33.25 25.5Z" fill="#303030"/>
</g>
<defs>
<filter id="filter0_dd_1856_8834" x="12" y="14" width="32" height="32" filterUnits="userSpaceOnUse" color-interpolation-filters="sRGB">
<feFlood flood-opacity="0" result="BackgroundImageFix"/>
<feColorMatrix in="SourceAlpha" type="matrix" values="0 0 0 0 0 0 0 0 0 0 0 0 0 0 0 0 0 0 127 0" result="hardAlpha"/>
<feOffset dy="1"/>
<feGaussianBlur stdDeviation="1"/>
<feColorMatrix type="matrix" values="0 0 0 0 0 0 0 0 0 0 0 0 0 0 0 0 0 0 0.16 0"/>
<feBlend mode="normal" in2="BackgroundImageFix" result="effect1_dropShadow_1856_8834"/>
<feColorMatrix in="SourceAlpha" type="matrix" values="0 0 0 0 0 0 0 0 0 0 0 0 0 0 0 0 0 0 127 0" result="hardAlpha"/>
<feOffset dy="2"/>
<feGaussianBlur stdDeviation="4"/>
<feColorMatrix type="matrix" values="0 0 0 0 0 0 0 0 0 0 0 0 0 0 0 0 0 0 0.48 0"/>
<feBlend mode="normal" in2="effect1_dropShadow_1856_8834" result="effect2_dropShadow_1856_8834"/>
<feBlend mode="normal" in="SourceGraphic" in2="effect2_dropShadow_1856_8834" result="shape"/>
</filter>
</defs>
</svg>
