<svg width="91" height="85" viewBox="0 0 91 85" fill="none" xmlns="http://www.w3.org/2000/svg">
<path d="M86.3701 67.1105L73.2463 44.2336C73.2085 44.1706 73.1895 44.1013 73.1959 44.0257C73.1959 43.8934 73.2022 43.7611 73.2022 43.6288V30.5743C73.2022 17.6647 62.6363 7.09888 49.7267 7.09888H49.3424C36.4328 7.09888 25.867 17.6647 25.867 30.5743V43.1499C25.867 43.2192 25.8481 43.2886 25.8103 43.3516L12.1636 67.1105H86.3701Z" stroke="#E0E0E0" stroke-width="2" stroke-miterlimit="10"/>
<path d="M85.9223 75.0236H12.6105C12.012 75.0236 11.5269 74.5385 11.5269 73.94V68.1877C11.5269 67.5891 12.012 67.104 12.6105 67.104H85.916C86.5146 67.104 86.9997 67.5891 86.9997 68.1877V73.94C86.9997 74.5448 86.5146 75.0236 85.9223 75.0236Z" stroke="#E0E0E0" stroke-width="2" stroke-miterlimit="10"/>
<path d="M49.3294 6.73969H49.7137C50.9234 6.73969 52.1078 6.8342 53.2734 7.01061V5.00707C53.2734 2.80192 51.4715 1 49.2664 1C47.0612 1 45.2593 2.80192 45.2593 5.00707V7.09252C46.5824 6.8594 47.9433 6.73969 49.3294 6.73969Z" fill="#E0E0E0" stroke="#E0E0E0" stroke-width="2" stroke-miterlimit="10"/>
<path d="M40.4902 75.0237V75.2001C40.4902 80.0262 44.4406 83.9766 49.2667 83.9766C54.0929 83.9766 58.0432 80.0262 58.0432 75.2001V75.0237H40.4902Z" fill="#E0E0E0" stroke="#E0E0E0" stroke-width="2" stroke-miterlimit="10"/>
<path d="M39.6646 45.1659C38.6313 45.1659 37.7808 44.3154 37.7808 43.2821V41.6314C37.7808 40.5981 38.6313 39.7476 39.6646 39.7476C40.6979 39.7476 41.5484 40.5981 41.5484 41.6314V43.2821C41.5484 44.3154 40.7042 45.1659 39.6646 45.1659Z" fill="#E0E0E0"/>
<path d="M58.8682 45.1659C57.8349 45.1659 56.9844 44.3154 56.9844 43.2821V41.6314C56.9844 40.5981 57.8349 39.7476 58.8682 39.7476C59.9015 39.7476 60.752 40.5981 60.752 41.6314V43.2821C60.752 44.3154 59.9015 45.1659 58.8682 45.1659Z" fill="#E0E0E0"/>
<path d="M40.5339 50.3701C43.8858 57.6282 54.6217 57.6534 57.9987 50.4016" stroke="#E0E0E0" stroke-width="2" stroke-miterlimit="10"/>
<path d="M86.0265 10.9122L82.3689 7.25464L78.8717 10.7518L82.5293 14.4094L86.0265 10.9122Z" fill="#E0E0E0"/>
<path d="M88.9237 18.5399L86.0056 15.6218L83.2212 18.4062L86.1393 21.3243L88.9237 18.5399Z" stroke="#E0E0E0" stroke-width="2" stroke-miterlimit="10"/>
<path d="M3.2749 54.2253V59.8264" stroke="#E0E0E0" stroke-width="2" stroke-miterlimit="10"/>
<path d="M6.07857 57.0291H0.471191" stroke="#E0E0E0" stroke-width="2" stroke-miterlimit="10"/>
<path d="M11.3151 49.2067L9.10986 47.0015L7.00263 49.1087L9.20788 51.3139L11.3151 49.2067Z" fill="#E0E0E0"/>
</svg>
