<!-- Generated by Trend Micro Style Portal -->
<svg version="1.1" xmlns="http://www.w3.org/2000/svg" width="16" height="16" viewBox="0 0 16 16">
  <title>add-square-plus-o</title>
  <path fill="rgb(34,34,34)" d="M11 9h3v2h-3v3h-2v-3h-3v-2h3v-3h2zM16 5v10c-0.002 0.552-0.448 0.998-1 1h-10c-0.552-0.002-0.998-0.448-1-1v-1h-1c-0.552-0.002-0.998-0.448-1-1v-1h-1c-0.552-0.002-0.998-0.448-1-1v-10c0.002-0.552 0.448-0.998 1-1h10c0.552 0.002 0.998 0.448 1 1v1h1c0.552 0.002 0.998 0.448 1 1v1h1c0.552 0.002 0.998 0.448 1 1v0zM3 2h8v-1h-10v10h1v-8c0.002-0.552 0.448-0.998 1-1h0zM5 4h8v-1h-10v10h1v-8c0.002-0.552 0.448-0.998 1-1h0zM15 5h-10v10h10z"></path>
</svg>