<!-- Generated by Trend Micro Style Portal -->
<svg version="1.1" xmlns="http://www.w3.org/2000/svg" width="16" height="16" viewBox="0 0 16 16">
  <title>api</title>
  <path fill="rgb(34,34,34)" d="M12.5 4.555h1v7h-1v-7zM16 4v8c0 1.657-1.343 3-3 3h-10c-1.657 0-3-1.343-3-3v-8c0-1.657 1.343-3 3-3h10c1.657 0 3 1.343 3 3zM15 4c0-1.105-0.895-2-2-2h-10c-1.105 0-2 0.895-2 2v8c0 1.105 0.895 2 2 2h10c1.105 0 2-0.895 2-2v-8zM5.5 4.555h1v7h-1v-3h-2v3h-1v-7h3zM5.5 5.555h-2v2h2v-2zM8.5 4.555h3v4h-3v3h-1v-7h1zM8.5 5.555v2h2v-2h-2z"></path>
</svg>