<!-- Generated by Trend Micro Style Portal -->
<svg version="1.1" xmlns="http://www.w3.org/2000/svg" width="16" height="16" viewBox="0 0 16 16">
  <title>container-cluster</title>
  <path fill="rgb(34,34,34)" d="M11.742 2.799l-3.242 1.908v3.712l3.242-1.922v-3.698z"></path>
  <path fill="rgb(34,34,34)" d="M8 0l-3.263 1.92 3.263 1.92 3.263-1.92-3.263-1.92z"></path>
  <path fill="rgb(34,34,34)" d="M7.5 4.707l-3.242-1.908v3.698l3.242 1.922v-3.712z"></path>
  <path fill="rgb(34,34,34)" d="M12.749 12.114v3.886l3.251-1.927v-3.886l-3.251 1.927z"></path>
  <path fill="rgb(34,34,34)" d="M8.501 14.075l3.248 1.925v-3.885l-3.248-1.925v3.886z"></path>
  <path fill="rgb(34,34,34)" d="M12.369 7.431l-0.12-0.071-3.278 1.943 3.278 1.943 3.278-1.943-3.158-1.872z"></path>
  <path fill="rgb(34,34,34)" d="M0 14.073l3.251 1.927v-3.886l-3.251-1.927v3.886z"></path>
  <path fill="rgb(34,34,34)" d="M4.251 12.114v3.886l3.25-1.926v-3.886l-0.002 0.001-3.248 1.925z"></path>
  <path fill="rgb(34,34,34)" d="M7.029 9.303l-3.278-1.943-3.278 1.943 3.278 1.943 3.278-1.943z"></path>
</svg>