<!-- Generated by Trend Micro Style Portal -->
<svg version="1.1" xmlns="http://www.w3.org/2000/svg" width="16" height="16" viewBox="0 0 16 16">
  <title>desktop-group</title>
  <path fill="rgb(34,34,34)" d="M16 1v8c0 0.552-0.448 1-1 1v0h-1v-8h-11v-1c0-0.552 0.448-1 1-1v0h11c0.552 0 1 0.448 1 1v0zM13 4v8c0 0.552-0.448 1-1 1v0h-4.5v0.79l0.37 0.21 1.88 1.070c0.148 0.089 0.245 0.248 0.245 0.43 0 0.274-0.221 0.497-0.495 0.5h-6c-0.274-0.003-0.495-0.226-0.495-0.5 0-0.182 0.097-0.341 0.243-0.429l0.002-0.001 2.25-1.3v-0.77h-4.5c-0.552 0-1-0.448-1-1v0-8c0-0.552 0.448-1 1-1v0h11c0.552 0 1 0.448 1 1v0zM11 8v-3h-9v6h9v-3z"></path>
</svg>