<!-- Generated by Trend Micro Style Portal -->
<svg version="1.1" xmlns="http://www.w3.org/2000/svg" width="16" height="16" viewBox="0 0 16 16">
  <title>desktop-update</title>
  <path fill="rgb(34,34,34)" d="M2 9v-7h10v3h2v-4c0-0.552-0.448-1-1-1v0h-12c-0.552 0-1 0.448-1 1v0 9c0 0.552 0.448 1 1 1v0h5v0.5l-3.75 1.57c-0.148 0.089-0.245 0.248-0.245 0.43 0 0.274 0.221 0.497 0.495 0.5h4.92c-0.264-0.59-0.418-1.278-0.418-2.002 0-1.13 0.375-2.173 1.008-3.010l-0.009 0.013z"></path>
  <path fill="rgb(34,34,34)" d="M14.5 12v0c0 1.381-1.119 2.5-2.5 2.5s-2.5-1.119-2.5-2.5c0-1.381 1.119-2.5 2.5-2.5v0 2.5l3-3-3-3v2c-2.209 0-4 1.791-4 4s1.791 4 4 4c2.209 0 4-1.791 4-4v0 0z"></path>
</svg>