<!-- Generated by Trend Micro Style Portal -->
<svg version="1.1" xmlns="http://www.w3.org/2000/svg" width="16" height="16" viewBox="0 0 16 16">
  <title>domain</title>
  <path fill="rgb(34,34,34)" d="M15.25 12h-0.25v-5h-6v-2h1.25c0.414-0.002 0.748-0.336 0.75-0.75v-3.5c-0.001-0.414-0.336-0.749-0.75-0.75h-4.5c-0.414 0.001-0.749 0.336-0.75 0.75v3.5c0.002 0.414 0.336 0.748 0.75 0.75h1.25v2h-6v5h-0.25c-0.414 0.002-0.748 0.336-0.75 0.75v2.5c0.002 0.414 0.336 0.748 0.75 0.75h2.5c0.414-0.001 0.749-0.336 0.75-0.75v-2.5c-0.001-0.414-0.336-0.749-0.75-0.75h-0.25v-3h4v3h-0.25c-0.414 0.002-0.748 0.336-0.75 0.75v2.5c0.002 0.414 0.336 0.748 0.75 0.75h2.5c0.414-0.002 0.748-0.336 0.75-0.75v-2.5c-0.002-0.414-0.336-0.748-0.75-0.75h-0.25v-3h4v3h-0.25c-0.414 0.002-0.748 0.336-0.75 0.75v2.5c0.002 0.414 0.336 0.748 0.75 0.75h2.5c0.414-0.002 0.748-0.336 0.75-0.75v-2.5c-0.002-0.414-0.336-0.748-0.75-0.75h-0zM3 15h-2v-2h2zM9 15h-2v-2h2zM15 15h-2v-2h2z"></path>
</svg>