<!-- Generated by Trend Micro Style Portal -->
<svg version="1.1" xmlns="http://www.w3.org/2000/svg" width="16" height="16" viewBox="0 0 16 16">
  <title>file-spark-o</title>
  <path fill-rule="evenodd" clip-rule="evenodd" d="M14 4V7H13V5H9V1H1V15H7V16H0.996094C0.464094 15.96 0.04 15.536 0 15V0.996094C0.04 0.464094 0.464 0.04 1 0H10L14 4ZM10 4H12.5996L10 1.40039V4Z" fill="white" fill-opacity="0.8"/>
  <path d="M9.98828 6C10.5687 8.75943 12.2157 10.4261 15 11.0078C12.2471 11.5817 10.6 13.2248 9.99609 16C9.40001 13.2563 7.76863 11.6053 5 11.0078C7.76078 10.4103 9.40789 8.75943 9.98828 6Z" fill="white" fill-opacity="0.8"/>
  <path d="M4.99512 5C5.22727 6.10376 5.8863 6.77022 7 7.00293C5.89882 7.23249 5.23962 7.88994 4.99805 9C4.7596 7.90256 4.10742 7.24192 3 7.00293C4.10428 6.76393 4.76296 6.10374 4.99512 5Z" fill="white" fill-opacity="0.8"/>
</svg>
