<!-- Generated by Trend Micro Style Portal -->
<svg version="1.1" xmlns="http://www.w3.org/2000/svg" width="16" height="16" viewBox="0 0 16 16">
  <title>file-unzip-o</title>
  <path fill="rgb(34,34,34)" d="M11 0h-3l-0 1h2l0 4h4v10h-12v-13h2v-2h-2c-0.5 0-1 0.5-1 1v14c0 0.5 0.5 1 1 1h12c0.5 0 1-0.5 1-1v-11l-4-4zM11 4v-2.6l2.6 2.6h-2.6z"></path>
  <path fill="rgb(34,34,34)" d="M6.4 8h2v1h-2v-1z"></path>
  <path fill="rgb(34,34,34)" d="M3.5 7h2v1h-2v-1z"></path>
  <path fill="rgb(34,34,34)" d="M4 9l0 5h4v-4l-2-0v-1h-2zM7 12v1h-2v-1h2z"></path>
  <path fill="rgb(34,34,34)" d="M2.5 3h2v1h-2v-1z"></path>
  <path fill="rgb(34,34,34)" d="M3 5h2v1h-2v-1z"></path>
  <path fill="rgb(34,34,34)" d="M7.2 4h2v1h-2v-1z"></path>
  <path fill="rgb(34,34,34)" d="M6.8 6h2v1h-2v-1z"></path>
  <path fill="rgb(34,34,34)" d="M9.6 2l-2 0 0 1 2-0-0-1z"></path>
</svg>