<!-- Generated by Trend Micro Style Portal -->
<svg version="1.1" xmlns="http://www.w3.org/2000/svg" width="16" height="16" viewBox="0 0 16 16">
  <title>fullscreen</title>
  <path fill="rgb(34,34,34)" d="M12.2705 8H11.2705V5.48535L5.75586 11H8V12H4V8H5V10.3408L10.3418 5H8.27051V4H12.2705V8Z"/>
  <path fill="rgb(34,34,34)" d="M14.1025 1.00488C14.6067 1.05621 15 1.48232 15 2V14L14.9951 14.1025C14.9472 14.573 14.573 14.9472 14.1025 14.9951L14 15H2C1.48232 15 1.05621 14.6067 1.00488 14.1025L1 14V2C1 1.44772 1.44772 1 2 1H14L14.1025 1.00488ZM2 14H14V2H2V14Z"/>
</svg>
