<!-- Generated by Trend Micro Style Portal -->
<svg version="1.1" xmlns="http://www.w3.org/2000/svg" width="16" height="16" viewBox="0 0 16 16">
  <title>ip</title>
  <path fill="rgb(34,34,34)" d="M3 4h1.5v8h-1.5zM7 4h6v5h-4.5v3h-1.5zM8.5 7.5h3v-2h-3zM16 4v8c0 0 0 0 0 0 0 1.657-1.343 3-3 3-0 0-0 0-0 0h-10c-1.657 0-3-1.343-3-3v0-8c0-1.657 1.343-3 3-3v0h10c1.657 0 3 1.343 3 3v0zM15 4c0-1.105-0.895-2-2-2v0h-10c-1.105 0-2 0.895-2 2v0 8c0 1.105 0.895 2 2 2v0h10c1.105 0 2-0.895 2-2v0z"></path>
</svg>