<!-- Generated by Trend Micro Style Portal -->
<svg version="1.1" xmlns="http://www.w3.org/2000/svg" width="16" height="16" viewBox="0 0 16 16">
  <title>light</title>
  <path fill="rgb(34,34,34)" d="M7.25 13.5h1.5v2.5h-1.5v-2.5z"></path>
  <path fill="rgb(34,34,34)" d="M13.8 7h2.2v1.5h-2.2v-1.5z"></path>
  <path fill="rgb(34,34,34)" d="M0 7h2.2v1.5h-2.2v-1.5z"></path>
  <path fill="rgb(34,34,34)" d="M11.712 12.773l1.061-1.061 1.414 1.414-1.061 1.061-1.414-1.414z"></path>
  <path fill="rgb(34,34,34)" d="M1.813 13.127l1.414-1.414 1.061 1.061-1.414 1.414-1.061-1.061z"></path>
  <path fill="rgb(34,34,34)" d="M10.25 3.091v-3.091h-4.5v3.091c-1.5 0.819-2.5 2.384-2.5 4.183 0 2.623 2.127 4.75 4.75 4.75s4.75-2.127 4.75-4.75c0-1.799-1-3.365-2.475-4.171l-0.025-0.012z"></path>
</svg>