<!-- Generated by Trend Micro Style Portal -->
<svg version="1.1" xmlns="http://www.w3.org/2000/svg" width="16" height="16" viewBox="0 0 16 16">
  <title>link</title>
  <path fill="rgb(34,34,34)" d="M13.9 7.5l-1.5 1.5h-2.1l2.6-2.6c0.9-0.9 0.9-2.3 0-3.2s-2.3-0.9-3.2 0v0l-2.7 2.6v-2.2l1.5-1.5c1.5-1.5 3.9-1.5 5.4 0s1.5 3.9 0 5.4v0zM6.4 12.8c-0.9 0.9-2.3 0.9-3.2 0s-0.9-2.3 0-3.2l2.6-2.6h-2.2l-1.5 1.5c-1.5 1.5-1.5 3.9 0 5.4s3.9 1.5 5.3 0l1.6-1.5v-2.1l-2.6 2.5zM5.1 12l6.9-6.9-1.1-1.1-6.9 6.9 1.1 1.1z"></path>
</svg>