<!-- Generated by Trend Micro Style Portal -->
<svg version="1.1" xmlns="http://www.w3.org/2000/svg" width="16" height="16" viewBox="0 0 16 16">
  <title>link-break</title>
  <path fill="rgb(34,34,34)" d="M5.1 12l-1.1-1.1 2.4-2.4 1.1 1-2.4 2.5zM9.6 3.2c0.9-0.9 2.3-0.9 3.2 0s0.9 2.3 0 3.2v0l-1.8 1.8 1.1 1.1 1.8-1.8c1.5-1.5 1.5-3.9 0-5.4s-3.9-1.5-5.4 0l-1.8 1.8 1.1 1.1 1.8-1.8zM12 5.1l-1.1-1.1-3.1 3.1-5.9-5.8-0.7 0.7 12.9 12.8 0.7-0.7-5.9-5.9 3.1-3.1zM6.4 12.8c-0.9 0.9-2.3 0.9-3.2 0s-0.9-2.3 0-3.2l1.8-1.8-1.1-1.1-1.8 1.8c-1.5 1.5-1.5 3.9 0 5.4s3.9 1.5 5.3 0l1.8-1.8-1-1.1-1.8 1.8z"></path>
</svg>