<!-- Generated by Trend Micro Style Portal -->
<svg version="1.1" xmlns="http://www.w3.org/2000/svg" width="16" height="16" viewBox="0 0 16 16">
  <title>list-ul</title>
  <path fill="rgb(34,34,34)" d="M14 4h-9v-2h9zM4 3v0c0-0.552-0.448-1-1-1v0 0c-0.552 0-1 0.448-1 1v0 0c0 0.552 0.448 1 1 1v0 0c0.552 0 1-0.448 1-1v0zM4 8v0c0-0.552-0.448-1-1-1v0 0c-0.552 0-1 0.448-1 1v0 0c0 0.552 0.448 1 1 1v0 0c0.552 0 1-0.448 1-1v0zM4 13v0c0-0.552-0.448-1-1-1v0 0c-0.552 0-1 0.448-1 1v0 0c0 0.552 0.448 1 1 1v0 0c0.552 0 1-0.448 1-1v0zM14 7h-9v2h9zM14 12h-9v2h9z"></path>
</svg>