<!-- Generated by Trend Micro Style Portal -->
<svg version="1.1" xmlns="http://www.w3.org/2000/svg" width="16" height="16" viewBox="0 0 16 16">
  <title>log</title>
  <path fill="rgb(34,34,34)" d="M15 1h-14c-0.552 0.002-0.998 0.448-1 1v12c0.002 0.552 0.448 0.998 1 1h14c0.552-0.002 0.998-0.448 1-1v-12c-0.002-0.552-0.448-0.998-1-1h-0zM15 14h-14v-11h14zM6.332 13l-4.301-4.354 4.301-4.353 0.699 0.707-3.603 3.646 3.603 3.647zM9.699 13l-0.699-0.707 3.603-3.646-3.603-3.647 0.699-0.707 4.301 4.353z"></path>
</svg>