<!-- Generated by Trend Micro Style Portal -->
<svg version="1.1" xmlns="http://www.w3.org/2000/svg" width="16" height="16" viewBox="0 0 16 16">
  <title>nas</title>
  <path fill="rgb(34,34,34)" d="M15 1h-14c-0.552 0-1 0.448-1 1v0 12c0 0.552 0.448 1 1 1v0h14c0.552 0 1-0.448 1-1v0-12c0-0.552-0.448-1-1-1v0zM2 5c-0.552 0-1-0.448-1-1s0.448-1 1-1c0.552 0 1 0.448 1 1v0c0 0.552-0.448 1-1 1v0zM15 13h-11v-10h11z"></path>
  <path fill="rgb(34,34,34)" d="M5 4h2v8h-2v-8z"></path>
  <path fill="rgb(34,34,34)" d="M11 4h-3v8h3zM10 6h-1v-1h1z"></path>
  <path fill="rgb(34,34,34)" d="M12 4h2v8h-2v-8z"></path>
</svg>