<!-- Generated by Trend Micro Style Portal -->
<svg version="1.1" xmlns="http://www.w3.org/2000/svg" width="16" height="16" viewBox="0 0 16 16">
  <title>plan-pending</title>
  <path fill="rgb(34,34,34)" d="M14.5 8h1.5c0 4.4-3.6 8-8 8s-8-3.6-8-8c0-4.4 3.6-8 8-8v1.5c-3.6 0-6.5 2.9-6.5 6.5s2.9 6.5 6.5 6.5c3.6 0 6.5-2.9 6.5-6.5zM10 0c-0.6 0-1 0.4-1 1s0.4 1 1 1 1-0.4 1-1-0.4-1-1-1zM13 2c-0.6 0-1 0.4-1 1s0.4 1 1 1 1-0.4 1-1-0.4-1-1-1zM15 5c-0.6 0-1 0.4-1 1s0.4 1 1 1 1-0.4 1-1-0.4-1-1-1z"></path>
</svg>