<!-- Generated by Trend Micro Style Portal -->
<svg version="1.1" xmlns="http://www.w3.org/2000/svg" width="16" height="16" viewBox="0 0 16 16">
  <title>puzzle</title>
  <path fill="rgb(34,34,34)" d="M16 11v4c0 0.552-0.448 1-1 1h-4v-1.5c0-0.828-0.672-1.5-1.5-1.5s-1.5 0.672-1.5 1.5v1.5h-4c-0.552 0-1-0.448-1-1v-4h-1.5c-0.828 0-1.5-0.672-1.5-1.5s0.672-1.5 1.5-1.5h1.5v-4c0-0.552 0.448-1 1-1h4v-1.5c0-0.828 0.672-1.5 1.5-1.5s1.5 0.672 1.5 1.5v1.5h4c0.552 0 1 0.448 1 1v4h-1.5c-0.828 0-1.5 0.672-1.5 1.5s0.672 1.5 1.5 1.5h1.5z"></path>
</svg>