<!-- Generated by Trend Micro Style Portal -->
<svg version="1.1" xmlns="http://www.w3.org/2000/svg" width="16" height="16" viewBox="0 0 16 16">
  <title>serverless</title>
  <path fill="rgb(34,34,34)" d="M0 5h2l-2-2v2z"></path>
  <path fill="rgb(34,34,34)" d="M4 7l-1-1h-3v4h7l-2-2h-3v-1h2z"></path>
  <path fill="rgb(34,34,34)" d="M16 1h-14l-1-1-1 1 15 15 1-1v-4h-4l-1-1h5v-4h-9l-1-1h10v-4zM14 12v1l-1-1h1zM13 7h1v1h-1v-1zM7 3h-3l-1-1h4v1zM14 3h-1v-1h1v1z"></path>
  <path fill="rgb(34,34,34)" d="M8 11h-8v4h12l-4-4zM2 13v-1h5v1h-5z"></path>
</svg>