<!-- Generated by Trend Micro Style Portal -->
<svg version="1.1" xmlns="http://www.w3.org/2000/svg" width="16" height="16" viewBox="0 0 16 16">
  <title>spinner</title>
  <path fill="rgb(34,34,34)" d="M16 8c-0.001 4.417-3.582 7.998-8 7.998s-8-3.582-8-8c0-3.888 2.773-7.128 6.449-7.85l0.051-0.008v1.54c-2.889 0.702-5 3.267-5 6.325 0 3.59 2.91 6.5 6.5 6.5s6.5-2.91 6.5-6.5c0-3.058-2.111-5.622-4.956-6.315l-0.044-0.009v-1.54c3.727 0.73 6.5 3.97 6.5 7.858 0 0.001 0 0.001 0 0.002v-0z"></path>
</svg>