<!-- Generated by Trend Micro Style Portal -->
<svg version="1.1" xmlns="http://www.w3.org/2000/svg" width="16" height="16" viewBox="0 0 16 16">
  <title>tag</title>
  <path fill="rgb(34,34,34)" d="M9.577 0l-9.101 9.101c-0.282 0.27-0.457 0.65-0.457 1.071s0.175 0.8 0.456 1.070l0.001 0 4.283 4.282c0.27 0.282 0.65 0.457 1.071 0.457s0.8-0.175 1.070-0.456l0-0.001 9.1-9.101v-6.424zM12.5 5c-0.828 0-1.5-0.672-1.5-1.5s0.672-1.5 1.5-1.5c0.828 0 1.5 0.672 1.5 1.5v0c0 0.828-0.672 1.5-1.5 1.5v0z"></path>
</svg>