<!-- Generated by Trend Micro Style Portal -->
<svg version="1.1" xmlns="http://www.w3.org/2000/svg" width="16" height="16" viewBox="0 0 16 16">
  <title>task-o</title>
  <path fill="rgb(34,34,34)" d="M14 1h-2v-1h-8v1h-2c-0.552 0-1 0.448-1 1v0 13c0 0.552 0.448 1 1 1v0h12c0.552 0 1-0.448 1-1v0-13c0-0.552-0.448-1-1-1v0zM5 1h6v1h-6v-1zM14 15h-12v-13h2v1h8v-1h2v13zM9 7h4v1h-4v-1zM9 11h4v1h-4v-1zM7.67 4.63l0.7 0.7-3.37 3.38-2-2 0.7-0.71 1.3 1.29zM7.67 8.63l0.7 0.7-3.37 3.38-2-2 0.7-0.71 1.3 1.29z"></path>
</svg>