<!-- Generated by Trend Micro Style Portal -->
<svg version="1.1" xmlns="http://www.w3.org/2000/svg" width="16" height="16" viewBox="0 0 16 16">
  <title>treeview</title>
  <path fill="rgb(34,34,34)" d="M11 9c0.002 0.552 0.448 0.998 1 1h2c0.552-0.002 0.998-0.448 1-1v-2c-0.002-0.552-0.448-0.998-1-1h-2c-0.552 0.002-0.998 0.448-1 1v0h-7v-2c0.552-0.002 0.998-0.448 1-1v-2c-0.002-0.552-0.448-0.998-1-1h-2c-0.552 0.002-0.998 0.448-1 1v2c0.002 0.552 0.448 0.998 1 1h0v9h9c0.002 0.552 0.448 0.998 1 1h2c0.552-0.002 0.998-0.448 1-1v-2c-0.002-0.552-0.448-0.998-1-1h-2c-0.552 0.002-0.998 0.448-1 1v0h-7v-3zM12 7h2v2h-2zM2 2h2v2h-2zM12 12h2v2h-2z"></path>
</svg>