<!-- Generated by Trend Micro Style Portal -->
<svg version="1.1" xmlns="http://www.w3.org/2000/svg" width="16" height="16" viewBox="0 0 16 16">
  <title>user-change</title>
  <path fill="rgb(34,34,34)" d="M7 10v4h-5.1c-3.4 0-1.3-3-0.4-4 0.9-0.9 2-1.5 3.2-1.8v-0.5c-1.5-0.7-2.1-2.5-1.4-4s2.5-2.1 4-1.4 2.1 2.5 1.4 4c-0.3 0.6-0.8 1.1-1.4 1.4v0.5c1.2 0.3 2.3 1 3.2 1.8h-3.5zM11.3 5.7c1.5-0.7 2.1-2.5 1.4-4s-2.5-2.1-4-1.4c-0.5 0.2-0.9 0.6-1.2 1 2 0.8 3 3.2 2.2 5.2-0.2 0.4-0.4 0.8-0.8 1.2 0.8 0.4 1.5 0.8 2.1 1.4v-3.4h0.3zM12 13v3l4-4-4-4v3h-4v2h4z"></path>
</svg>