<!-- Generated by Trend Micro Style Portal -->
<svg version="1.1" xmlns="http://www.w3.org/2000/svg" width="16" height="16" viewBox="0 0 16 16">
  <title>virtual-machine</title>
  <path fill="rgb(34,34,34)" d="M0 16h16v-4h-16v4zM13 13h1v1h-1v-1zM2 13h5v1h-5v-1zM15 5.003v0.995h1v4.005h-1v0.997h-2v-1h2v-4h-2v-1h2v-4h-2v-1h2v0.997h1v4.005h-1zM3 1h-2v-1h2v1zM1 4.994h-1v-3.977h1v3.977zM6 1h-2v-1h2v1zM9 1h-2v-1h2v1zM12 1h-2v-1h2v1zM3 6h-2v-1h2v1zM1 9.994h-1v-3.977h1v3.977zM1 10h2v1h-2v-1zM6 6h-2v-1h2v1zM6 11h-2v-1h2v1zM9 6h-2v-1h2v1zM12 11h-2v-1h2v1zM12 6h-2v-1h2v1zM9 11h-2v-1h2v1zM14 3h-1v-1h1v1zM14 8h-1v-1h1v1z"></path>
</svg>