<!-- Generated by Trend Micro Style Portal -->
<svg version="1.1" xmlns="http://www.w3.org/2000/svg" width="16" height="16" viewBox="0 0 16 16">
  <title>widgets</title>
  <path fill="rgb(34,34,34)" d="M7 2v6c0 0.6-0.4 1-1 1h-4c-0.6 0-1-0.4-1-1v-6c0-0.6 0.4-1 1-1h4c0.6 0 1 0.4 1 1zM6 11h-4c-0.6 0-1 0.4-1 1v2c0 0.6 0.4 1 1 1h4c0.6 0 1-0.4 1-1v-2c0-0.6-0.4-1-1-1zM14 1h-4c-0.6 0-1 0.4-1 1v2c0 0.6 0.4 1 1 1h4c0.6 0 1-0.4 1-1v-2c0-0.6-0.4-1-1-1zM14 7h-4c-0.6 0-1 0.4-1 1v6c0 0.6 0.4 1 1 1h4c0.6 0 1-0.4 1-1v-6c0-0.6-0.4-1-1-1z"></path>
</svg>